<svg xmlns="http://www.w3.org/2000/svg" xmlns:xlink="http://www.w3.org/1999/xlink" width="187" zoomAndPan="magnify" viewBox="0 0 375 374.999991" height="200" preserveAspectRatio="" version="1.0"> 
 <rect x="-37.5" fill="none" width="450" y="-37.499999" height="449.999989"/>
  <g>
    <path fill="#ffffff" d="M 273.386719 198.984375 L 250.875 237.972656 L 252.429688 240.664062 C 260.453125 226.773438 268.476562 212.878906 276.492188 198.984375 Z M 98.496094 198.988281 L 122.5625 240.664062 L 124.117188 237.972656 L 101.609375 198.984375 L 98.496094 198.984375 Z M 241.765625 223.808594 L 199.324219 223.808594 L 194.691406 228.441406 L 180.300781 228.441406 L 175.683594 223.824219 L 133.199219 223.824219 L 128.527344 231.914062 L 187.492188 231.914062 L 187.492188 231.929688 L 246.449219 231.929688 Z M 167.375 98.761719 C 148.457031 131.527344 129.539062 164.296875 110.617188 197.0625 L 119.96875 197.0625 L 140.089844 162.214844 L 138.394531 155.882812 L 145.589844 143.421875 L 151.921875 141.726562 L 172.050781 106.855469 Z M 202.945312 106.84375 L 223.078125 141.726562 L 229.410156 143.421875 L 236.605469 155.882812 L 234.910156 162.214844 L 255.027344 197.058594 L 264.355469 197.058594 L 235.988281 147.929688 L 207.605469 98.765625 Z M 220.734375 238.761719 L 216.101562 234.125 L 158.890625 234.125 L 154.257812 238.761719 L 124.574219 238.761719 L 123.015625 241.457031 C 134.328125 241.460938 145.644531 241.460938 156.957031 241.460938 L 158.890625 243.398438 L 216.101562 243.398438 L 218.039062 241.460938 L 251.972656 241.460938 L 250.421875 238.769531 Z M 116.453125 173.28125 L 122.785156 171.585938 L 151.390625 122.039062 L 149.695312 115.707031 L 164.078125 90.792969 L 162.519531 88.09375 C 157.015625 97.625 151.511719 107.15625 146.011719 116.695312 L 143.363281 117.402344 L 114.753906 166.949219 L 115.460938 169.597656 L 98.949219 198.195312 L 102.0625 198.195312 Z M 258.546875 173.28125 L 252.214844 171.585938 L 223.609375 122.039062 L 225.304688 115.707031 L 210.921875 90.792969 L 212.476562 88.101562 C 217.984375 97.632812 223.484375 107.164062 228.988281 116.695312 L 231.632812 117.402344 L 260.238281 166.949219 L 259.53125 169.597656 L 276.039062 198.195312 L 272.925781 198.195312 Z M 211.238281 87.296875 L 162.972656 87.296875 L 162.96875 87.304688 L 164.527344 90.003906 L 210.464844 90.003906 L 212.015625 87.3125 L 212.007812 87.300781 L 211.238281 87.300781 Z M 211.238281 87.296875 " fill-opacity="1" fill-rule="nonzero"/>
  </g>
  <path fill="#84a3db" d="M 203.90625 210.851562 L 171.09375 210.851562 L 171.09375 193.054688 L 203.90625 193.054688 L 203.90625 210.851562 " fill-opacity="1" fill-rule="nonzero"/>
  <path fill="#000000" d="M 203.90625 210.851562 L 203.90625 209.4375 L 172.507812 209.4375 L 172.507812 194.46875 L 202.488281 194.46875 L 202.488281 210.851562 L 203.90625 210.851562 L 203.90625 209.4375 L 203.90625 210.851562 L 205.320312 210.851562 L 205.320312 191.636719 L 169.675781 191.636719 L 169.675781 212.269531 L 205.320312 212.269531 L 205.320312 210.851562 L 203.90625 210.851562 " fill-opacity="1" fill-rule="nonzero"/>
  <path fill="#ffffff" d="M 213.855469 217.140625 L 161.136719 217.140625 L 161.136719 208.761719 L 213.855469 208.761719 L 213.855469 217.140625 " fill-opacity="1" fill-rule="nonzero"/>
  <g clip-path="url(#72c65cb3b7)">
    <path fill="#000000" d="M 213.855469 217.140625 L 213.855469 215.726562 L 162.554688 215.726562 L 162.554688 210.179688 L 212.4375 210.179688 L 212.4375 217.140625 L 213.855469 217.140625 L 213.855469 215.726562 L 213.855469 217.140625 L 215.269531 217.140625 L 215.269531 207.347656 L 159.722656 207.347656 L 159.722656 218.558594 L 215.269531 218.558594 L 215.269531 217.140625 L 213.855469 217.140625 Z"/>
  </g>
  <defs>
    <g/>
    <linearGradient x1="0" gradientTransform="matrix(0.75, 0, 0, 0.75, 0.0000045, 0)" y1="250" x2="499.999979" gradientUnits="userSpaceOnUse" y2="250" id="caf6a5980d">
      <stop stop-opacity="1" stop-color="rgb(0%, 0%, 0%)" offset="0"/>
      <stop stop-opacity="1" stop-color="rgb(0.0808716%, 0.0778198%, 0.312805%)" offset="0.00390625"/>
      <stop stop-opacity="1" stop-color="rgb(0.161743%, 0.15564%, 0.627136%)" offset="0.0078125"/>
      <stop stop-opacity="1" stop-color="rgb(0.242615%, 0.233459%, 0.941467%)" offset="0.0117187"/>
      <stop stop-opacity="1" stop-color="rgb(0.323486%, 0.311279%, 1.255798%)" offset="0.015625"/>
      <stop stop-opacity="1" stop-color="rgb(0.404358%, 0.389099%, 1.568604%)" offset="0.0195312"/>
      <stop stop-opacity="1" stop-color="rgb(0.486755%, 0.468445%, 1.882935%)" offset="0.0234375"/>
      <stop stop-opacity="1" stop-color="rgb(0.567627%, 0.546265%, 2.197266%)" offset="0.0273438"/>
      <stop stop-opacity="1" stop-color="rgb(0.648499%, 0.624084%, 2.511597%)" offset="0.03125"/>
      <stop stop-opacity="1" stop-color="rgb(0.72937%, 0.701904%, 2.825928%)" offset="0.0351562"/>
      <stop stop-opacity="1" stop-color="rgb(0.811768%, 0.779724%, 3.140259%)" offset="0.0390625"/>
      <stop stop-opacity="1" stop-color="rgb(0.892639%, 0.857544%, 3.453064%)" offset="0.0429687"/>
    </linearGradient>
  </defs>
<g ><path fill="#ffffff" d="M 273.386719 198.984375 L 250.875 237.972656 L 252.429688 240.664062 C 260.453125 226.773438 268.476562 212.878906 276.492188 198.984375 Z M 98.496094 198.988281 L 122.5625 240.664062 L 124.117188 237.972656 L 101.609375 198.984375 L 98.496094 198.984375 Z M 241.765625 223.808594 L 199.324219 223.808594 L 194.691406 228.441406 L 180.300781 228.441406 L 175.683594 223.824219 L 133.199219 223.824219 L 128.527344 231.914062 L 187.492188 231.914062 L 187.492188 231.929688 L 246.449219 231.929688 Z M 167.375 98.761719 C 148.457031 131.527344 129.539062 164.296875 110.617188 197.0625 L 119.96875 197.0625 L 140.089844 162.214844 L 138.394531 155.882812 L 145.589844 143.421875 L 151.921875 141.726562 L 172.050781 106.855469 Z M 202.945312 106.84375 L 223.078125 141.726562 L 229.410156 143.421875 L 236.605469 155.882812 L 234.910156 162.214844 L 255.027344 197.058594 L 264.355469 197.058594 L 235.988281 147.929688 L 207.605469 98.765625 Z M 220.734375 238.761719 L 216.101562 234.125 L 158.890625 234.125 L 154.257812 238.761719 L 124.574219 238.761719 L 123.015625 241.457031 C 134.328125 241.460938 145.644531 241.460938 156.957031 241.460938 L 158.890625 243.398438 L 216.101562 243.398438 L 218.039062 241.460938 L 251.972656 241.460938 L 250.421875 238.769531 Z M 116.453125 173.28125 L 122.785156 171.585938 L 151.390625 122.039062 L 149.695312 115.707031 L 164.078125 90.792969 L 162.519531 88.09375 C 157.015625 97.625 151.511719 107.15625 146.011719 116.695312 L 143.363281 117.402344 L 114.753906 166.949219 L 115.460938 169.597656 L 98.949219 198.195312 L 102.0625 198.195312 Z M 258.546875 173.28125 L 252.214844 171.585938 L 223.609375 122.039062 L 225.304688 115.707031 L 210.921875 90.792969 L 212.476562 88.101562 C 217.984375 97.632812 223.484375 107.164062 228.988281 116.695312 L 231.632812 117.402344 L 260.238281 166.949219 L 259.53125 169.597656 L 276.039062 198.195312 L 272.925781 198.195312 Z M 211.238281 87.296875 L 162.972656 87.296875 L 162.96875 87.304688 L 164.527344 90.003906 L 210.464844 90.003906 L 212.015625 87.3125 L 212.007812 87.300781 L 211.238281 87.300781 Z M 211.238281 87.296875 " fill-opacity="1" fill-rule="nonzero"/></g><path fill="#84a3db" d="M 203.90625 210.851562 L 171.09375 210.851562 L 171.09375 193.054688 L 203.90625 193.054688 L 203.90625 210.851562 " fill-opacity="1" fill-rule="nonzero"/><path fill="#000000" d="M 203.90625 210.851562 L 203.90625 209.4375 L 172.507812 209.4375 L 172.507812 194.46875 L 202.488281 194.46875 L 202.488281 210.851562 L 203.90625 210.851562 L 203.90625 209.4375 L 203.90625 210.851562 L 205.320312 210.851562 L 205.320312 191.636719 L 169.675781 191.636719 L 169.675781 212.269531 L 205.320312 212.269531 L 205.320312 210.851562 L 203.90625 210.851562 " fill-opacity="1" fill-rule="nonzero"/><path fill="#ffffff" d="M 213.855469 217.140625 L 161.136719 217.140625 L 161.136719 208.761719 L 213.855469 208.761719 L 213.855469 217.140625 " fill-opacity="1" fill-rule="nonzero"/><g clip-path="url(#72c65cb3b7)"><path fill="#000000" d="M 213.855469 217.140625 L 213.855469 215.726562 L 162.554688 215.726562 L 162.554688 210.179688 L 212.4375 210.179688 L 212.4375 217.140625 L 213.855469 217.140625 L 213.855469 215.726562 L 213.855469 217.140625 L 215.269531 217.140625 L 215.269531 207.347656 L 159.722656 207.347656 L 159.722656 218.558594 L 215.269531 218.558594 L 215.269531 217.140625 L 213.855469 217.140625 " fill-opacity="1" fill-rule="nonzero"/></g><path fill="#ffffff" d="M 251.738281 193.054688 C 251.738281 195.363281 249.863281 197.238281 247.542969 197.238281 L 127.453125 197.238281 C 125.140625 197.238281 123.261719 195.363281 123.261719 193.054688 L 123.261719 107.519531 C 123.261719 105.207031 125.140625 103.332031 127.453125 103.332031 L 247.542969 103.332031 C 249.863281 103.332031 251.738281 105.207031 251.738281 107.519531 L 251.738281 193.054688 " fill-opacity="1" fill-rule="nonzero"/><g clip-path="url(#2e2f96fae3)"><path fill="#000000" d="M 251.738281 193.054688 L 250.320312 193.054688 C 250.316406 193.824219 250.007812 194.507812 249.503906 195.011719 C 249 195.515625 248.316406 195.824219 247.542969 195.824219 L 127.453125 195.824219 C 126.683594 195.824219 125.996094 195.515625 125.492188 195.011719 C 124.988281 194.507812 124.683594 193.824219 124.675781 193.054688 L 124.675781 107.519531 C 124.683594 106.75 124.988281 106.0625 125.492188 105.558594 C 125.996094 105.054688 126.683594 104.75 127.453125 104.75 L 247.542969 104.75 C 248.316406 104.75 249 105.054688 249.503906 105.558594 C 250.007812 106.0625 250.316406 106.75 250.320312 107.519531 L 250.320312 193.054688 L 253.152344 193.054688 L 253.152344 107.519531 C 253.152344 105.976562 252.523438 104.566406 251.511719 103.554688 C 250.496094 102.546875 249.089844 101.917969 247.542969 101.917969 L 127.453125 101.917969 C 125.910156 101.917969 124.496094 102.546875 123.488281 103.554688 C 122.476562 104.566406 121.847656 105.976562 121.847656 107.519531 L 121.847656 193.054688 C 121.847656 194.59375 122.476562 196.003906 123.488281 197.011719 C 124.496094 198.027344 125.910156 198.660156 127.453125 198.65625 L 247.542969 198.65625 C 249.089844 198.660156 250.496094 198.027344 251.511719 197.011719 C 252.523438 196.003906 253.152344 194.59375 253.152344 193.054688 L 251.738281 193.054688 " fill-opacity="1" fill-rule="nonzero"/></g><path fill="#004aad" d="M 243.453125 187.539062 C 243.453125 189.558594 241.816406 191.1875 239.804688 191.1875 L 135.191406 191.1875 C 133.175781 191.1875 131.542969 189.558594 131.542969 187.539062 L 131.542969 113.035156 C 131.542969 111.019531 133.175781 109.382812 135.191406 109.382812 L 239.804688 109.382812 C 241.816406 109.382812 243.453125 111.019531 243.453125 113.035156 L 243.453125 187.539062 " fill-opacity="1" fill-rule="nonzero"/><path fill="#000000" d="M 243.453125 187.539062 L 242.039062 187.539062 C 242.039062 188.15625 241.789062 188.707031 241.382812 189.117188 C 240.972656 189.523438 240.421875 189.773438 239.804688 189.773438 L 135.191406 189.773438 C 134.574219 189.773438 134.023438 189.523438 133.617188 189.117188 C 133.207031 188.707031 132.964844 188.15625 132.960938 187.539062 L 132.960938 113.035156 C 132.964844 112.414062 133.207031 111.863281 133.617188 111.457031 C 134.023438 111.046875 134.574219 110.800781 135.191406 110.800781 L 239.804688 110.800781 C 240.421875 110.800781 240.972656 111.046875 241.382812 111.457031 C 241.789062 111.863281 242.039062 112.414062 242.039062 113.035156 L 242.039062 187.539062 L 244.871094 187.539062 L 244.871094 113.035156 C 244.871094 111.636719 244.296875 110.363281 243.386719 109.449219 C 242.472656 108.539062 241.199219 107.964844 239.804688 107.964844 L 135.191406 107.964844 C 133.796875 107.964844 132.523438 108.539062 131.609375 109.449219 C 130.699219 110.363281 130.125 111.636719 130.125 113.035156 L 130.125 187.539062 C 130.125 188.933594 130.699219 190.210938 131.609375 191.121094 C 132.523438 192.035156 133.796875 192.605469 135.191406 192.605469 L 239.804688 192.605469 C 241.199219 192.605469 242.472656 192.035156 243.386719 191.121094 C 244.296875 190.210938 244.871094 188.933594 244.871094 187.539062 L 243.453125 187.539062 " fill-opacity="1" fill-rule="nonzero"/><path fill="#438dcb" d="M 222.816406 134.214844 C 222.816406 153.714844 207.003906 169.523438 187.5 169.523438 C 168 169.523438 152.1875 153.714844 152.1875 134.214844 C 152.1875 114.707031 168 98.898438 187.5 98.898438 C 207.003906 98.898438 222.816406 114.707031 222.816406 134.214844 " fill-opacity="1" fill-rule="nonzero"/><g clip-path="url(#bf3f66fcee)"><path fill="#000000" d="M 222.816406 134.214844 L 221.398438 134.214844 C 221.394531 143.578125 217.605469 152.042969 211.46875 158.183594 C 205.328125 164.320312 196.863281 168.109375 187.5 168.109375 C 178.132812 168.109375 169.671875 164.320312 163.527344 158.183594 C 157.394531 152.042969 153.605469 143.578125 153.605469 134.214844 C 153.605469 124.847656 157.394531 116.386719 163.527344 110.242188 C 169.671875 104.109375 178.132812 100.3125 187.5 100.3125 C 196.863281 100.3125 205.328125 104.109375 211.46875 110.242188 C 217.605469 116.386719 221.394531 124.847656 221.398438 134.214844 L 224.230469 134.214844 C 224.226562 113.925781 207.785156 97.480469 187.5 97.480469 C 167.210938 97.480469 150.769531 113.925781 150.769531 134.214844 C 150.769531 154.5 167.210938 170.941406 187.5 170.941406 C 207.785156 170.941406 224.226562 154.5 224.230469 134.214844 L 222.816406 134.214844 " fill-opacity="1" fill-rule="nonzero"/></g><g clip-path="url(#870fce9799)"><path fill="#000000" d="M 205.421875 134.214844 L 204.007812 134.214844 C 204.011719 143.769531 202.03125 152.410156 198.910156 158.539062 C 197.355469 161.609375 195.519531 164.042969 193.570312 165.660156 C 192.59375 166.476562 191.59375 167.089844 190.582031 167.496094 C 189.566406 167.90625 188.546875 168.109375 187.5 168.109375 C 186.449219 168.109375 185.429688 167.90625 184.417969 167.496094 C 182.648438 166.785156 180.90625 165.441406 179.289062 163.507812 C 176.871094 160.613281 174.773438 156.425781 173.308594 151.390625 C 171.839844 146.359375 170.992188 140.484375 170.992188 134.214844 C 170.992188 124.65625 172.972656 116.015625 176.089844 109.882812 C 177.640625 106.816406 179.484375 104.386719 181.429688 102.761719 C 182.40625 101.949219 183.410156 101.339844 184.417969 100.929688 C 185.429688 100.523438 186.449219 100.3125 187.5 100.3125 C 188.546875 100.3125 189.566406 100.523438 190.582031 100.929688 C 192.347656 101.636719 194.09375 102.988281 195.707031 104.917969 C 198.125 107.808594 200.222656 111.996094 201.691406 117.03125 C 203.15625 122.066406 204.007812 127.941406 204.007812 134.214844 L 206.839844 134.214844 C 206.835938 124.265625 204.804688 115.253906 201.433594 108.601562 C 199.746094 105.277344 197.71875 102.535156 195.386719 100.585938 C 194.210938 99.609375 192.964844 98.835938 191.640625 98.300781 C 190.320312 97.769531 188.925781 97.480469 187.5 97.480469 C 186.070312 97.480469 184.675781 97.769531 183.359375 98.300781 C 181.039062 99.238281 178.957031 100.90625 177.121094 103.101562 C 174.367188 106.402344 172.144531 110.917969 170.59375 116.238281 C 169.042969 121.558594 168.15625 127.683594 168.15625 134.214844 C 168.164062 144.160156 170.191406 153.175781 173.5625 159.828125 C 175.25 163.144531 177.277344 165.886719 179.617188 167.835938 C 180.785156 168.8125 182.039062 169.585938 183.359375 170.121094 C 184.675781 170.660156 186.070312 170.941406 187.5 170.941406 C 188.925781 170.941406 190.320312 170.660156 191.640625 170.121094 C 193.957031 169.183594 196.042969 167.519531 197.882812 165.320312 C 200.636719 162.019531 202.851562 157.507812 204.410156 152.183594 C 205.960938 146.863281 206.839844 140.738281 206.839844 134.214844 L 205.421875 134.214844 " fill-opacity="1" fill-rule="nonzero"/></g><path fill="#000000" d="M 187.5 152.132812 L 187.5 150.714844 C 177.941406 150.722656 169.300781 148.738281 163.171875 145.625 C 160.101562 144.066406 157.671875 142.230469 156.050781 140.28125 C 155.234375 139.308594 154.625 138.304688 154.214844 137.296875 C 153.808594 136.28125 153.605469 135.261719 153.605469 134.214844 C 153.605469 133.164062 153.808594 132.140625 154.214844 131.132812 C 154.929688 129.363281 156.273438 127.621094 158.203125 126.003906 C 161.097656 123.585938 165.285156 121.488281 170.316406 120.023438 C 175.351562 118.554688 181.226562 117.707031 187.5 117.707031 C 197.054688 117.699219 205.695312 119.683594 211.832031 122.804688 C 214.894531 124.355469 217.328125 126.191406 218.953125 128.140625 C 219.761719 129.121094 220.375 130.117188 220.78125 131.132812 C 221.191406 132.140625 221.394531 133.164062 221.398438 134.214844 C 221.394531 135.261719 221.191406 136.28125 220.78125 137.296875 C 220.066406 139.0625 218.726562 140.808594 216.792969 142.417969 C 213.898438 144.839844 209.710938 146.9375 204.679688 148.398438 C 199.644531 149.871094 193.769531 150.714844 187.5 150.714844 L 187.5 153.550781 C 197.445312 153.550781 206.460938 151.515625 213.113281 148.148438 C 216.4375 146.460938 219.171875 144.433594 221.128906 142.09375 C 222.101562 140.925781 222.878906 139.675781 223.410156 138.355469 C 223.945312 137.03125 224.230469 135.636719 224.230469 134.214844 C 224.230469 132.785156 223.945312 131.390625 223.410156 130.074219 C 222.476562 127.753906 220.804688 125.671875 218.613281 123.828125 C 215.308594 121.074219 210.792969 118.859375 205.476562 117.304688 C 200.15625 115.75 194.023438 114.871094 187.5 114.871094 C 177.550781 114.878906 168.539062 116.90625 161.886719 120.277344 C 158.566406 121.964844 155.824219 123.992188 153.875 126.328125 C 152.894531 127.5 152.125 128.746094 151.585938 130.074219 C 151.054688 131.390625 150.769531 132.785156 150.769531 134.214844 C 150.769531 135.636719 151.054688 137.027344 151.585938 138.355469 C 152.523438 140.671875 154.191406 142.757812 156.390625 144.59375 C 159.695312 147.347656 164.203125 149.566406 169.523438 151.117188 C 174.84375 152.671875 180.972656 153.550781 187.5 153.550781 L 187.5 152.132812 " fill-opacity="1" fill-rule="nonzero"/><path fill="#000000" d="M 186.082031 169.523438 L 188.914062 169.523438 L 188.914062 98.898438 L 186.082031 98.898438 Z M 186.082031 169.523438 " fill-opacity="1" fill-rule="nonzero"/><path fill="#000000" d="M 152.1875 135.628906 L 222.816406 135.628906 L 222.816406 132.796875 L 152.1875 132.796875 Z M 152.1875 135.628906 " fill-opacity="1" fill-rule="nonzero"/><path fill="#000000" d="M 161.136719 214.367188 L 213.855469 214.367188 L 213.855469 211.53125 L 161.136719 211.53125 Z M 161.136719 214.367188 " fill-opacity="1" fill-rule="nonzero"/><g fill="#ffffff" fill-opacity="1"><g transform="translate(39.726564, 278.672677)"><g><path d="M 13.5 -16.46875 C 13.5 -16.914062 13.679688 -17.253906 14.046875 -17.484375 C 14.410156 -17.722656 14.796875 -17.84375 15.203125 -17.84375 C 15.628906 -17.84375 16.003906 -17.734375 16.328125 -17.515625 C 16.660156 -17.296875 16.828125 -16.945312 16.828125 -16.46875 L 16.828125 -1.6875 C 16.828125 -1.125 16.628906 -0.703125 16.234375 -0.421875 C 15.847656 -0.140625 15.421875 0 14.953125 0 C 14.628906 0 14.3125 -0.0703125 14 -0.21875 C 13.695312 -0.375 13.453125 -0.570312 13.265625 -0.8125 L 4.703125 -11.84375 L 4.8125 -10.28125 L 4.8125 -1.484375 C 4.8125 -0.960938 4.640625 -0.582031 4.296875 -0.34375 C 3.953125 -0.113281 3.570312 0 3.15625 0 C 2.726562 0 2.34375 -0.113281 2 -0.34375 C 1.65625 -0.582031 1.484375 -0.960938 1.484375 -1.484375 L 1.484375 -16.125 C 1.484375 -16.6875 1.65625 -17.113281 2 -17.40625 C 2.34375 -17.695312 2.738281 -17.84375 3.1875 -17.84375 C 3.539062 -17.84375 3.84375 -17.769531 4.09375 -17.625 C 4.351562 -17.488281 4.59375 -17.28125 4.8125 -17 L 13.609375 -5.578125 L 13.5 -7.453125 Z M 13.5 -16.46875 "/></g></g></g><g fill="#ffffff" fill-opacity="1"><g transform="translate(59.07193, 278.672677)"><g><path d="M 18.90625 -8.90625 C 18.90625 -7.070312 18.523438 -5.460938 17.765625 -4.078125 C 17.003906 -2.703125 15.941406 -1.628906 14.578125 -0.859375 C 13.222656 -0.0976562 11.628906 0.28125 9.796875 0.28125 C 7.972656 0.28125 6.367188 -0.0976562 4.984375 -0.859375 C 3.597656 -1.628906 2.519531 -2.703125 1.75 -4.078125 C 0.988281 -5.460938 0.609375 -7.070312 0.609375 -8.90625 C 0.609375 -10.75 0.988281 -12.359375 1.75 -13.734375 C 2.519531 -15.117188 3.597656 -16.191406 4.984375 -16.953125 C 6.367188 -17.722656 7.972656 -18.109375 9.796875 -18.109375 C 11.628906 -18.109375 13.222656 -17.722656 14.578125 -16.953125 C 15.941406 -16.191406 17.003906 -15.117188 17.765625 -13.734375 C 18.523438 -12.359375 18.90625 -10.75 18.90625 -8.90625 Z M 9.796875 -2.578125 C 10.972656 -2.578125 11.992188 -2.84375 12.859375 -3.375 C 13.734375 -3.90625 14.410156 -4.644531 14.890625 -5.59375 C 15.378906 -6.550781 15.625 -7.65625 15.625 -8.90625 C 15.625 -10.175781 15.378906 -11.285156 14.890625 -12.234375 C 14.410156 -13.179688 13.734375 -13.921875 12.859375 -14.453125 C 11.992188 -14.992188 10.972656 -15.265625 9.796875 -15.265625 C 8.617188 -15.265625 7.585938 -14.992188 6.703125 -14.453125 C 5.816406 -13.921875 5.128906 -13.179688 4.640625 -12.234375 C 4.160156 -11.285156 3.921875 -10.175781 3.921875 -8.90625 C 3.921875 -7.65625 4.160156 -6.550781 4.640625 -5.59375 C 5.128906 -4.644531 5.816406 -3.90625 6.703125 -3.375 C 7.585938 -2.84375 8.617188 -2.578125 9.796875 -2.578125 Z M 9.796875 -2.578125 "/></g></g></g><g fill="#ffffff" fill-opacity="1"><g transform="translate(79.929084, 278.672677)"><g><path d="M -0.109375 -15.765625 C -0.273438 -16.160156 -0.285156 -16.515625 -0.140625 -16.828125 C -0.00390625 -17.140625 0.207031 -17.382812 0.5 -17.5625 C 0.800781 -17.75 1.117188 -17.84375 1.453125 -17.84375 C 1.785156 -17.84375 2.070312 -17.773438 2.3125 -17.640625 C 2.5625 -17.503906 2.757812 -17.28125 2.90625 -16.96875 L 9.078125 -5.15625 L 15.125 -16.90625 C 15.4375 -17.53125 15.910156 -17.84375 16.546875 -17.84375 C 16.878906 -17.84375 17.195312 -17.75 17.5 -17.5625 C 17.8125 -17.375 18.035156 -17.113281 18.171875 -16.78125 C 18.304688 -16.457031 18.257812 -16.070312 18.03125 -15.625 L 10.53125 -0.875 C 10.195312 -0.289062 9.710938 0 9.078125 0 C 8.773438 0 8.484375 -0.0703125 8.203125 -0.21875 C 7.921875 -0.375 7.707031 -0.609375 7.5625 -0.921875 Z M -0.109375 -15.765625 "/></g></g></g><g fill="#ffffff" fill-opacity="1"><g transform="translate(99.07847, 278.672677)"><g><path d="M 9.15625 -18.109375 C 9.457031 -18.109375 9.738281 -18.046875 10 -17.921875 C 10.257812 -17.804688 10.453125 -17.609375 10.578125 -17.328125 L 18.515625 -1.796875 C 18.753906 -1.378906 18.816406 -1.015625 18.703125 -0.703125 C 18.585938 -0.398438 18.367188 -0.160156 18.046875 0.015625 C 17.734375 0.191406 17.398438 0.28125 17.046875 0.28125 C 16.785156 0.28125 16.519531 0.207031 16.25 0.0625 C 15.976562 -0.0703125 15.769531 -0.269531 15.625 -0.53125 L 13.65625 -4.421875 L 4.640625 -4.421875 L 2.6875 -0.53125 C 2.550781 -0.226562 2.347656 -0.0195312 2.078125 0.09375 C 1.816406 0.21875 1.550781 0.28125 1.28125 0.28125 C 0.96875 0.28125 0.65625 0.191406 0.34375 0.015625 C 0.0390625 -0.160156 -0.175781 -0.398438 -0.3125 -0.703125 C -0.457031 -1.015625 -0.445312 -1.347656 -0.28125 -1.703125 L 7.703125 -17.328125 C 7.847656 -17.648438 8.035156 -17.859375 8.265625 -17.953125 C 8.503906 -18.054688 8.800781 -18.109375 9.15625 -18.109375 Z M 9.15625 -13.390625 L 6.015625 -7.140625 L 12.296875 -7.140625 Z M 9.15625 -13.390625 "/></g></g></g><g fill="#ffffff" fill-opacity="1"><g transform="translate(118.591812, 278.672677)"><g/></g></g><g fill="#ffffff" fill-opacity="1"><g transform="translate(126.234772, 278.672677)"><g><path d="M 14.5 -17.84375 C 15.039062 -17.84375 15.453125 -17.691406 15.734375 -17.390625 C 16.015625 -17.085938 16.15625 -16.75 16.15625 -16.375 C 16.15625 -16.019531 16.015625 -15.691406 15.734375 -15.390625 C 15.453125 -15.097656 15.039062 -14.953125 14.5 -14.953125 L 9.296875 -14.953125 L 9.328125 -1.484375 C 9.328125 -0.984375 9.144531 -0.609375 8.78125 -0.359375 C 8.414062 -0.117188 8.046875 0 7.671875 0 C 7.273438 0 6.90625 -0.117188 6.5625 -0.359375 C 6.21875 -0.609375 6.046875 -0.984375 6.046875 -1.484375 L 6.046875 -14.953125 L 0.875 -14.953125 C 0.332031 -14.953125 -0.0625 -15.097656 -0.3125 -15.390625 C -0.570312 -15.691406 -0.703125 -16.019531 -0.703125 -16.375 C -0.703125 -16.75 -0.570312 -17.085938 -0.3125 -17.390625 C -0.0625 -17.691406 0.332031 -17.84375 0.875 -17.84375 Z M 14.5 -17.84375 "/></g></g></g><g fill="#ffffff" fill-opacity="1"><g transform="translate(142.724516, 278.672677)"><g><path d="M 14.59375 -2.796875 C 15.070312 -2.796875 15.445312 -2.640625 15.71875 -2.328125 C 15.988281 -2.023438 16.125 -1.695312 16.125 -1.34375 C 16.125 -1.007812 16 -0.703125 15.75 -0.421875 C 15.5 -0.140625 15.113281 0 14.59375 0 L 3.46875 0 C 2.90625 0 2.457031 -0.160156 2.125 -0.484375 C 1.789062 -0.816406 1.625 -1.21875 1.625 -1.6875 L 1.625 -16.1875 C 1.625 -16.632812 1.789062 -17.019531 2.125 -17.34375 C 2.457031 -17.675781 2.90625 -17.84375 3.46875 -17.84375 L 14.59375 -17.84375 C 15.09375 -17.84375 15.460938 -17.707031 15.703125 -17.4375 C 15.953125 -17.164062 16.078125 -16.847656 16.078125 -16.484375 C 16.078125 -16.148438 15.945312 -15.832031 15.6875 -15.53125 C 15.4375 -15.238281 15.070312 -15.09375 14.59375 -15.09375 L 4.8125 -15.09375 L 4.8125 -10.1875 L 14.078125 -10.1875 C 14.566406 -10.1875 14.929688 -10.039062 15.171875 -9.75 C 15.421875 -9.46875 15.546875 -9.148438 15.546875 -8.796875 C 15.546875 -8.453125 15.421875 -8.140625 15.171875 -7.859375 C 14.929688 -7.585938 14.566406 -7.453125 14.078125 -7.453125 L 4.8125 -7.453125 L 4.8125 -2.796875 Z M 14.59375 -2.796875 "/></g></g></g><g fill="#ffffff" fill-opacity="1"><g transform="translate(160.61408, 278.672677)"><g><path d="M 9.796875 -18.109375 C 11.179688 -18.109375 12.460938 -17.90625 13.640625 -17.5 C 14.816406 -17.09375 15.859375 -16.375 16.765625 -15.34375 C 17.140625 -14.914062 17.300781 -14.503906 17.25 -14.109375 C 17.207031 -13.722656 17.03125 -13.40625 16.71875 -13.15625 C 16.414062 -12.914062 16.054688 -12.804688 15.640625 -12.828125 C 15.222656 -12.847656 14.828125 -13.050781 14.453125 -13.4375 C 13.753906 -14.207031 13.019531 -14.703125 12.25 -14.921875 C 11.476562 -15.148438 10.648438 -15.265625 9.765625 -15.265625 C 8.597656 -15.265625 7.566406 -15.003906 6.671875 -14.484375 C 5.785156 -13.972656 5.09375 -13.257812 4.59375 -12.34375 C 4.101562 -11.425781 3.859375 -10.351562 3.859375 -9.125 C 3.859375 -7.820312 4.109375 -6.675781 4.609375 -5.6875 C 5.117188 -4.695312 5.828125 -3.929688 6.734375 -3.390625 C 7.640625 -2.847656 8.695312 -2.578125 9.90625 -2.578125 C 10.789062 -2.578125 11.671875 -2.800781 12.546875 -3.25 C 13.421875 -3.695312 14.117188 -4.238281 14.640625 -4.875 C 15.015625 -5.320312 15.421875 -5.578125 15.859375 -5.640625 C 16.296875 -5.703125 16.675781 -5.625 17 -5.40625 C 17.332031 -5.195312 17.53125 -4.894531 17.59375 -4.5 C 17.664062 -4.113281 17.53125 -3.675781 17.1875 -3.1875 C 16.6875 -2.476562 16.035156 -1.863281 15.234375 -1.34375 C 14.429688 -0.820312 13.5625 -0.421875 12.625 -0.140625 C 11.695312 0.140625 10.773438 0.28125 9.859375 0.28125 C 8.003906 0.28125 6.382812 -0.109375 5 -0.890625 C 3.625 -1.679688 2.550781 -2.78125 1.78125 -4.1875 C 1.019531 -5.59375 0.640625 -7.238281 0.640625 -9.125 C 0.640625 -10.9375 1.039062 -12.515625 1.84375 -13.859375 C 2.644531 -15.203125 3.738281 -16.242188 5.125 -16.984375 C 6.519531 -17.734375 8.078125 -18.109375 9.796875 -18.109375 Z M 9.796875 -18.109375 "/></g></g></g><g fill="#ffffff" fill-opacity="1"><g transform="translate(179.287529, 278.672677)"><g><path d="M 14.75 -17.84375 C 15.144531 -17.84375 15.519531 -17.71875 15.875 -17.46875 C 16.226562 -17.226562 16.40625 -16.863281 16.40625 -16.375 L 16.40625 -1.515625 C 16.40625 -1.003906 16.226562 -0.625 15.875 -0.375 C 15.519531 -0.125 15.144531 0 14.75 0 C 14.34375 0 13.972656 -0.125 13.640625 -0.375 C 13.316406 -0.625 13.15625 -1.003906 13.15625 -1.515625 L 13.15625 -7.28125 L 4.78125 -7.28125 L 4.78125 -1.515625 C 4.78125 -0.992188 4.613281 -0.609375 4.28125 -0.359375 C 3.945312 -0.117188 3.59375 0 3.21875 0 C 2.8125 0 2.429688 -0.128906 2.078125 -0.390625 C 1.734375 -0.648438 1.5625 -1.023438 1.5625 -1.515625 L 1.5625 -16.375 C 1.5625 -16.863281 1.71875 -17.226562 2.03125 -17.46875 C 2.351562 -17.71875 2.722656 -17.84375 3.140625 -17.84375 C 3.546875 -17.84375 3.921875 -17.71875 4.265625 -17.46875 C 4.609375 -17.226562 4.78125 -16.863281 4.78125 -16.375 L 4.78125 -10 L 13.15625 -10 L 13.15625 -16.375 C 13.15625 -16.863281 13.316406 -17.226562 13.640625 -17.46875 C 13.972656 -17.71875 14.34375 -17.84375 14.75 -17.84375 Z M 14.75 -17.84375 "/></g></g></g><g fill="#ffffff" fill-opacity="1"><g transform="translate(198.408923, 278.672677)"><g/></g></g><g fill="#ffffff" fill-opacity="1"><g transform="translate(206.051882, 278.672677)"><g><path d="M 9.15625 -18.109375 C 9.457031 -18.109375 9.738281 -18.046875 10 -17.921875 C 10.257812 -17.804688 10.453125 -17.609375 10.578125 -17.328125 L 18.515625 -1.796875 C 18.753906 -1.378906 18.816406 -1.015625 18.703125 -0.703125 C 18.585938 -0.398438 18.367188 -0.160156 18.046875 0.015625 C 17.734375 0.191406 17.398438 0.28125 17.046875 0.28125 C 16.785156 0.28125 16.519531 0.207031 16.25 0.0625 C 15.976562 -0.0703125 15.769531 -0.269531 15.625 -0.53125 L 13.65625 -4.421875 L 4.640625 -4.421875 L 2.6875 -0.53125 C 2.550781 -0.226562 2.347656 -0.0195312 2.078125 0.09375 C 1.816406 0.21875 1.550781 0.28125 1.28125 0.28125 C 0.96875 0.28125 0.65625 0.191406 0.34375 0.015625 C 0.0390625 -0.160156 -0.175781 -0.398438 -0.3125 -0.703125 C -0.457031 -1.015625 -0.445312 -1.347656 -0.28125 -1.703125 L 7.703125 -17.328125 C 7.847656 -17.648438 8.035156 -17.859375 8.265625 -17.953125 C 8.503906 -18.054688 8.800781 -18.109375 9.15625 -18.109375 Z M 9.15625 -13.390625 L 6.015625 -7.140625 L 12.296875 -7.140625 Z M 9.15625 -13.390625 "/></g></g></g><g fill="#ffffff" fill-opacity="1"><g transform="translate(225.565225, 278.672677)"><g><path d="M 9.796875 -18.109375 C 11.179688 -18.109375 12.460938 -17.90625 13.640625 -17.5 C 14.816406 -17.09375 15.859375 -16.375 16.765625 -15.34375 C 17.140625 -14.914062 17.300781 -14.503906 17.25 -14.109375 C 17.207031 -13.722656 17.03125 -13.40625 16.71875 -13.15625 C 16.414062 -12.914062 16.054688 -12.804688 15.640625 -12.828125 C 15.222656 -12.847656 14.828125 -13.050781 14.453125 -13.4375 C 13.753906 -14.207031 13.019531 -14.703125 12.25 -14.921875 C 11.476562 -15.148438 10.648438 -15.265625 9.765625 -15.265625 C 8.597656 -15.265625 7.566406 -15.003906 6.671875 -14.484375 C 5.785156 -13.972656 5.09375 -13.257812 4.59375 -12.34375 C 4.101562 -11.425781 3.859375 -10.351562 3.859375 -9.125 C 3.859375 -7.820312 4.109375 -6.675781 4.609375 -5.6875 C 5.117188 -4.695312 5.828125 -3.929688 6.734375 -3.390625 C 7.640625 -2.847656 8.695312 -2.578125 9.90625 -2.578125 C 10.789062 -2.578125 11.671875 -2.800781 12.546875 -3.25 C 13.421875 -3.695312 14.117188 -4.238281 14.640625 -4.875 C 15.015625 -5.320312 15.421875 -5.578125 15.859375 -5.640625 C 16.296875 -5.703125 16.675781 -5.625 17 -5.40625 C 17.332031 -5.195312 17.53125 -4.894531 17.59375 -4.5 C 17.664062 -4.113281 17.53125 -3.675781 17.1875 -3.1875 C 16.6875 -2.476562 16.035156 -1.863281 15.234375 -1.34375 C 14.429688 -0.820312 13.5625 -0.421875 12.625 -0.140625 C 11.695312 0.140625 10.773438 0.28125 9.859375 0.28125 C 8.003906 0.28125 6.382812 -0.109375 5 -0.890625 C 3.625 -1.679688 2.550781 -2.78125 1.78125 -4.1875 C 1.019531 -5.59375 0.640625 -7.238281 0.640625 -9.125 C 0.640625 -10.9375 1.039062 -12.515625 1.84375 -13.859375 C 2.644531 -15.203125 3.738281 -16.242188 5.125 -16.984375 C 6.519531 -17.734375 8.078125 -18.109375 9.796875 -18.109375 Z M 9.796875 -18.109375 "/></g></g></g><g fill="#ffffff" fill-opacity="1"><g transform="translate(244.238674, 278.672677)"><g><path d="M 9.15625 -18.109375 C 9.457031 -18.109375 9.738281 -18.046875 10 -17.921875 C 10.257812 -17.804688 10.453125 -17.609375 10.578125 -17.328125 L 18.515625 -1.796875 C 18.753906 -1.378906 18.816406 -1.015625 18.703125 -0.703125 C 18.585938 -0.398438 18.367188 -0.160156 18.046875 0.015625 C 17.734375 0.191406 17.398438 0.28125 17.046875 0.28125 C 16.785156 0.28125 16.519531 0.207031 16.25 0.0625 C 15.976562 -0.0703125 15.769531 -0.269531 15.625 -0.53125 L 13.65625 -4.421875 L 4.640625 -4.421875 L 2.6875 -0.53125 C 2.550781 -0.226562 2.347656 -0.0195312 2.078125 0.09375 C 1.816406 0.21875 1.550781 0.28125 1.28125 0.28125 C 0.96875 0.28125 0.65625 0.191406 0.34375 0.015625 C 0.0390625 -0.160156 -0.175781 -0.398438 -0.3125 -0.703125 C -0.457031 -1.015625 -0.445312 -1.347656 -0.28125 -1.703125 L 7.703125 -17.328125 C 7.847656 -17.648438 8.035156 -17.859375 8.265625 -17.953125 C 8.503906 -18.054688 8.800781 -18.109375 9.15625 -18.109375 Z M 9.15625 -13.390625 L 6.015625 -7.140625 L 12.296875 -7.140625 Z M 9.15625 -13.390625 "/></g></g></g><g fill="#ffffff" fill-opacity="1"><g transform="translate(263.752017, 278.672677)"><g><path d="M 8.265625 -17.84375 C 9.960938 -17.84375 11.441406 -17.46875 12.703125 -16.71875 C 13.972656 -15.96875 14.960938 -14.925781 15.671875 -13.59375 C 16.390625 -12.257812 16.75 -10.695312 16.75 -8.90625 C 16.75 -7.132812 16.390625 -5.578125 15.671875 -4.234375 C 14.960938 -2.890625 13.972656 -1.847656 12.703125 -1.109375 C 11.441406 -0.367188 9.960938 0 8.265625 0 L 2.484375 0 C 1.984375 0 1.550781 -0.160156 1.1875 -0.484375 C 0.820312 -0.816406 0.640625 -1.207031 0.640625 -1.65625 L 0.640625 -16.21875 C 0.640625 -16.664062 0.820312 -17.046875 1.1875 -17.359375 C 1.550781 -17.679688 1.984375 -17.84375 2.484375 -17.84375 Z M 8.265625 -2.765625 C 9.304688 -2.765625 10.222656 -3.019531 11.015625 -3.53125 C 11.804688 -4.050781 12.421875 -4.769531 12.859375 -5.6875 C 13.304688 -6.601562 13.53125 -7.675781 13.53125 -8.90625 C 13.53125 -10.132812 13.304688 -11.210938 12.859375 -12.140625 C 12.421875 -13.078125 11.804688 -13.800781 11.015625 -14.3125 C 10.222656 -14.832031 9.304688 -15.09375 8.265625 -15.09375 L 3.84375 -15.09375 L 3.84375 -2.765625 Z M 8.265625 -2.765625 "/></g></g></g><g fill="#ffffff" fill-opacity="1"><g transform="translate(282.145509, 278.672677)"><g><path d="M 14.59375 -2.796875 C 15.070312 -2.796875 15.445312 -2.640625 15.71875 -2.328125 C 15.988281 -2.023438 16.125 -1.695312 16.125 -1.34375 C 16.125 -1.007812 16 -0.703125 15.75 -0.421875 C 15.5 -0.140625 15.113281 0 14.59375 0 L 3.46875 0 C 2.90625 0 2.457031 -0.160156 2.125 -0.484375 C 1.789062 -0.816406 1.625 -1.21875 1.625 -1.6875 L 1.625 -16.1875 C 1.625 -16.632812 1.789062 -17.019531 2.125 -17.34375 C 2.457031 -17.675781 2.90625 -17.84375 3.46875 -17.84375 L 14.59375 -17.84375 C 15.09375 -17.84375 15.460938 -17.707031 15.703125 -17.4375 C 15.953125 -17.164062 16.078125 -16.847656 16.078125 -16.484375 C 16.078125 -16.148438 15.945312 -15.832031 15.6875 -15.53125 C 15.4375 -15.238281 15.070312 -15.09375 14.59375 -15.09375 L 4.8125 -15.09375 L 4.8125 -10.1875 L 14.078125 -10.1875 C 14.566406 -10.1875 14.929688 -10.039062 15.171875 -9.75 C 15.421875 -9.46875 15.546875 -9.148438 15.546875 -8.796875 C 15.546875 -8.453125 15.421875 -8.140625 15.171875 -7.859375 C 14.929688 -7.585938 14.566406 -7.453125 14.078125 -7.453125 L 4.8125 -7.453125 L 4.8125 -2.796875 Z M 14.59375 -2.796875 "/></g></g></g><g fill="#ffffff" fill-opacity="1"><g transform="translate(300.035072, 278.672677)"><g><path d="M 3.296875 -17.84375 C 3.898438 -17.84375 4.378906 -17.5625 4.734375 -17 L 10.578125 -7.84375 L 16.40625 -17.03125 C 16.59375 -17.300781 16.820312 -17.503906 17.09375 -17.640625 C 17.363281 -17.773438 17.628906 -17.84375 17.890625 -17.84375 C 18.304688 -17.84375 18.671875 -17.707031 18.984375 -17.4375 C 19.296875 -17.164062 19.453125 -16.773438 19.453125 -16.265625 L 19.453125 -1.453125 C 19.453125 -0.972656 19.273438 -0.609375 18.921875 -0.359375 C 18.566406 -0.117188 18.195312 0 17.8125 0 C 17.394531 0 17.023438 -0.117188 16.703125 -0.359375 C 16.378906 -0.609375 16.21875 -0.972656 16.21875 -1.453125 L 16.21875 -10.890625 L 12.046875 -4.375 C 11.890625 -4.09375 11.675781 -3.882812 11.40625 -3.75 C 11.132812 -3.625 10.859375 -3.5625 10.578125 -3.5625 C 10.296875 -3.5625 10.007812 -3.640625 9.71875 -3.796875 C 9.4375 -3.953125 9.222656 -4.171875 9.078125 -4.453125 L 4.953125 -10.859375 L 4.953125 -1.453125 C 4.953125 -0.972656 4.78125 -0.609375 4.4375 -0.359375 C 4.09375 -0.117188 3.722656 0 3.328125 0 C 2.921875 0 2.546875 -0.117188 2.203125 -0.359375 C 1.867188 -0.609375 1.703125 -0.972656 1.703125 -1.453125 L 1.703125 -16.234375 C 1.703125 -16.722656 1.863281 -17.113281 2.1875 -17.40625 C 2.519531 -17.695312 2.890625 -17.84375 3.296875 -17.84375 Z M 3.296875 -17.84375 "/></g></g></g><g fill="#ffffff" fill-opacity="1"><g transform="translate(322.488013, 278.672677)"><g><path d="M 2.9375 -17.046875 L 8.09375 -10.03125 L 13.25 -16.96875 C 13.445312 -17.226562 13.671875 -17.4375 13.921875 -17.59375 C 14.179688 -17.757812 14.457031 -17.84375 14.75 -17.84375 C 15.101562 -17.84375 15.421875 -17.71875 15.703125 -17.46875 C 15.984375 -17.226562 16.15625 -16.921875 16.21875 -16.546875 C 16.289062 -16.171875 16.175781 -15.78125 15.875 -15.375 L 9.75 -7.171875 L 9.75 -1.6875 C 9.75 -1.15625 9.570312 -0.738281 9.21875 -0.4375 C 8.863281 -0.144531 8.5 0 8.125 0 C 7.675781 0 7.289062 -0.144531 6.96875 -0.4375 C 6.65625 -0.738281 6.5 -1.15625 6.5 -1.6875 L 6.5 -7.171875 L 0.21875 -15.453125 C -0.0625 -15.847656 -0.164062 -16.226562 -0.09375 -16.59375 C -0.03125 -16.957031 0.144531 -17.253906 0.4375 -17.484375 C 0.738281 -17.722656 1.078125 -17.84375 1.453125 -17.84375 C 2.066406 -17.84375 2.5625 -17.578125 2.9375 -17.046875 Z M 2.9375 -17.046875 "/></g></g></g><g fill="#ffffff" fill-opacity="1"><g transform="translate(58.9034, 302.236358)"><g><path d="M 4.421875 -1.578125 L 7.46875 -7.8125 C 7.550781 -8.019531 7.703125 -8.125 7.921875 -8.125 C 8.160156 -8.125 8.332031 -8.023438 8.4375 -7.828125 L 11.5 -1.59375 L 14.5 -8.5625 C 14.550781 -8.675781 14.625 -8.757812 14.71875 -8.8125 C 14.8125 -8.875 14.90625 -8.90625 15 -8.90625 C 15.164062 -8.90625 15.3125 -8.84375 15.4375 -8.71875 C 15.5625 -8.59375 15.59375 -8.410156 15.53125 -8.171875 L 11.96875 -0.1875 C 11.863281 0.03125 11.703125 0.140625 11.484375 0.140625 C 11.265625 0.140625 11.109375 0.0351562 11.015625 -0.171875 L 7.953125 -6.484375 L 4.875 -0.15625 C 4.832031 -0.0625 4.757812 0.0078125 4.65625 0.0625 C 4.5625 0.113281 4.460938 0.140625 4.359375 0.140625 C 4.140625 0.140625 3.984375 0.0351562 3.890625 -0.171875 L 0.328125 -8.203125 C 0.253906 -8.410156 0.285156 -8.578125 0.421875 -8.703125 C 0.554688 -8.835938 0.710938 -8.90625 0.890625 -8.90625 C 1.117188 -8.90625 1.273438 -8.800781 1.359375 -8.59375 Z M 4.421875 -1.578125 "/></g></g></g><g fill="#ffffff" fill-opacity="1"><g transform="translate(75.988264, 302.236358)"><g><path d="M 2.046875 -4.890625 L 7.203125 -4.890625 L 7.203125 -8.40625 C 7.203125 -8.570312 7.253906 -8.695312 7.359375 -8.78125 C 7.460938 -8.863281 7.582031 -8.90625 7.71875 -8.90625 C 7.84375 -8.90625 7.957031 -8.863281 8.0625 -8.78125 C 8.164062 -8.695312 8.21875 -8.570312 8.21875 -8.40625 L 8.21875 -0.53125 C 8.21875 -0.351562 8.160156 -0.21875 8.046875 -0.125 C 7.941406 -0.0390625 7.828125 0 7.703125 0 C 7.578125 0 7.460938 -0.0390625 7.359375 -0.125 C 7.253906 -0.21875 7.203125 -0.351562 7.203125 -0.53125 L 7.203125 -4 L 2.046875 -4 L 2.046875 -0.515625 C 2.046875 -0.335938 1.992188 -0.207031 1.890625 -0.125 C 1.796875 -0.0390625 1.6875 0 1.5625 0 C 1.4375 0 1.316406 -0.0390625 1.203125 -0.125 C 1.085938 -0.21875 1.03125 -0.347656 1.03125 -0.515625 L 1.03125 -8.40625 C 1.03125 -8.570312 1.082031 -8.695312 1.1875 -8.78125 C 1.289062 -8.863281 1.40625 -8.90625 1.53125 -8.90625 C 1.65625 -8.90625 1.769531 -8.859375 1.875 -8.765625 C 1.988281 -8.679688 2.046875 -8.5625 2.046875 -8.40625 Z M 2.046875 -4.890625 "/></g></g></g><g fill="#ffffff" fill-opacity="1"><g transform="translate(86.258928, 302.236358)"><g><path d="M 2.078125 -0.921875 L 7.609375 -0.921875 C 7.753906 -0.921875 7.863281 -0.875 7.9375 -0.78125 C 8.019531 -0.6875 8.0625 -0.578125 8.0625 -0.453125 C 8.070312 -0.335938 8.039062 -0.234375 7.96875 -0.140625 C 7.894531 -0.046875 7.773438 0 7.609375 0 L 1.703125 0 C 1.503906 0 1.347656 -0.0546875 1.234375 -0.171875 C 1.117188 -0.296875 1.0625 -0.441406 1.0625 -0.609375 L 1.0625 -8.296875 C 1.0625 -8.460938 1.117188 -8.601562 1.234375 -8.71875 C 1.347656 -8.84375 1.503906 -8.90625 1.703125 -8.90625 L 7.609375 -8.90625 C 7.765625 -8.90625 7.878906 -8.859375 7.953125 -8.765625 C 8.023438 -8.679688 8.054688 -8.578125 8.046875 -8.453125 C 8.046875 -8.335938 8.007812 -8.234375 7.9375 -8.140625 C 7.863281 -8.054688 7.753906 -8.015625 7.609375 -8.015625 L 2.078125 -8.015625 L 2.078125 -4.859375 L 7.34375 -4.859375 C 7.476562 -4.859375 7.582031 -4.8125 7.65625 -4.71875 C 7.726562 -4.632812 7.765625 -4.53125 7.765625 -4.40625 C 7.765625 -4.289062 7.726562 -4.1875 7.65625 -4.09375 C 7.59375 -4.007812 7.488281 -3.96875 7.34375 -3.96875 L 2.078125 -3.96875 Z M 2.078125 -0.921875 "/></g></g></g><g fill="#ffffff" fill-opacity="1"><g transform="translate(95.913933, 302.236358)"><g><path d="M 2.09375 -3.109375 L 2.09375 -0.484375 C 2.09375 -0.328125 2.035156 -0.207031 1.921875 -0.125 C 1.816406 -0.0390625 1.695312 0 1.5625 0 C 1.445312 0 1.332031 -0.0390625 1.21875 -0.125 C 1.113281 -0.207031 1.0625 -0.320312 1.0625 -0.46875 L 1.0625 -8.40625 C 1.0625 -8.5625 1.109375 -8.679688 1.203125 -8.765625 C 1.304688 -8.859375 1.429688 -8.90625 1.578125 -8.90625 L 4.90625 -8.90625 C 5.71875 -8.90625 6.390625 -8.765625 6.921875 -8.484375 C 7.460938 -8.210938 7.867188 -7.847656 8.140625 -7.390625 C 8.410156 -6.941406 8.546875 -6.441406 8.546875 -5.890625 C 8.546875 -5.179688 8.34375 -4.585938 7.9375 -4.109375 C 7.539062 -3.628906 6.914062 -3.3125 6.0625 -3.15625 L 8.203125 -0.859375 C 8.335938 -0.722656 8.394531 -0.585938 8.375 -0.453125 C 8.363281 -0.328125 8.3125 -0.21875 8.21875 -0.125 C 8.125 -0.0390625 8.007812 0 7.875 0 C 7.738281 0 7.613281 -0.0625 7.5 -0.1875 L 4.796875 -3.109375 Z M 2.09375 -3.984375 L 4.90625 -3.984375 C 5.8125 -3.984375 6.472656 -4.160156 6.890625 -4.515625 C 7.304688 -4.878906 7.515625 -5.320312 7.515625 -5.84375 C 7.503906 -6.445312 7.269531 -6.953125 6.8125 -7.359375 C 6.351562 -7.765625 5.71875 -7.96875 4.90625 -7.96875 L 2.09375 -7.96875 Z M 2.09375 -3.984375 "/></g></g></g><g fill="#ffffff" fill-opacity="1"><g transform="translate(105.820802, 302.236358)"><g><path d="M 2.078125 -0.921875 L 7.609375 -0.921875 C 7.753906 -0.921875 7.863281 -0.875 7.9375 -0.78125 C 8.019531 -0.6875 8.0625 -0.578125 8.0625 -0.453125 C 8.070312 -0.335938 8.039062 -0.234375 7.96875 -0.140625 C 7.894531 -0.046875 7.773438 0 7.609375 0 L 1.703125 0 C 1.503906 0 1.347656 -0.0546875 1.234375 -0.171875 C 1.117188 -0.296875 1.0625 -0.441406 1.0625 -0.609375 L 1.0625 -8.296875 C 1.0625 -8.460938 1.117188 -8.601562 1.234375 -8.71875 C 1.347656 -8.84375 1.503906 -8.90625 1.703125 -8.90625 L 7.609375 -8.90625 C 7.765625 -8.90625 7.878906 -8.859375 7.953125 -8.765625 C 8.023438 -8.679688 8.054688 -8.578125 8.046875 -8.453125 C 8.046875 -8.335938 8.007812 -8.234375 7.9375 -8.140625 C 7.863281 -8.054688 7.753906 -8.015625 7.609375 -8.015625 L 2.078125 -8.015625 L 2.078125 -4.859375 L 7.34375 -4.859375 C 7.476562 -4.859375 7.582031 -4.8125 7.65625 -4.71875 C 7.726562 -4.632812 7.765625 -4.53125 7.765625 -4.40625 C 7.765625 -4.289062 7.726562 -4.1875 7.65625 -4.09375 C 7.59375 -4.007812 7.488281 -3.96875 7.34375 -3.96875 L 2.078125 -3.96875 Z M 2.078125 -0.921875 "/></g></g></g><g fill="#ffffff" fill-opacity="1"><g transform="translate(115.47581, 302.236358)"><g/></g></g><g fill="#ffffff" fill-opacity="1"><g transform="translate(120.009679, 302.236358)"><g><path d="M 7.59375 -8.90625 C 7.757812 -8.90625 7.882812 -8.851562 7.96875 -8.75 C 8.0625 -8.65625 8.109375 -8.546875 8.109375 -8.421875 C 8.109375 -8.296875 8.0625 -8.179688 7.96875 -8.078125 C 7.882812 -7.984375 7.757812 -7.9375 7.59375 -7.9375 L 4.46875 -7.9375 L 4.484375 -0.515625 C 4.484375 -0.335938 4.421875 -0.207031 4.296875 -0.125 C 4.179688 -0.0390625 4.066406 0 3.953125 0 C 3.828125 0 3.707031 -0.0390625 3.59375 -0.125 C 3.488281 -0.207031 3.4375 -0.335938 3.4375 -0.515625 L 3.4375 -7.9375 L 0.34375 -7.9375 C 0.164062 -7.9375 0.0390625 -7.984375 -0.03125 -8.078125 C -0.113281 -8.179688 -0.15625 -8.296875 -0.15625 -8.421875 C -0.15625 -8.546875 -0.113281 -8.65625 -0.03125 -8.75 C 0.0390625 -8.851562 0.164062 -8.90625 0.34375 -8.90625 Z M 7.59375 -8.90625 "/></g></g></g><g fill="#ffffff" fill-opacity="1"><g transform="translate(128.965086, 302.236358)"><g><path d="M 2.078125 -0.921875 L 7.609375 -0.921875 C 7.753906 -0.921875 7.863281 -0.875 7.9375 -0.78125 C 8.019531 -0.6875 8.0625 -0.578125 8.0625 -0.453125 C 8.070312 -0.335938 8.039062 -0.234375 7.96875 -0.140625 C 7.894531 -0.046875 7.773438 0 7.609375 0 L 1.703125 0 C 1.503906 0 1.347656 -0.0546875 1.234375 -0.171875 C 1.117188 -0.296875 1.0625 -0.441406 1.0625 -0.609375 L 1.0625 -8.296875 C 1.0625 -8.460938 1.117188 -8.601562 1.234375 -8.71875 C 1.347656 -8.84375 1.503906 -8.90625 1.703125 -8.90625 L 7.609375 -8.90625 C 7.765625 -8.90625 7.878906 -8.859375 7.953125 -8.765625 C 8.023438 -8.679688 8.054688 -8.578125 8.046875 -8.453125 C 8.046875 -8.335938 8.007812 -8.234375 7.9375 -8.140625 C 7.863281 -8.054688 7.753906 -8.015625 7.609375 -8.015625 L 2.078125 -8.015625 L 2.078125 -4.859375 L 7.34375 -4.859375 C 7.476562 -4.859375 7.582031 -4.8125 7.65625 -4.71875 C 7.726562 -4.632812 7.765625 -4.53125 7.765625 -4.40625 C 7.765625 -4.289062 7.726562 -4.1875 7.65625 -4.09375 C 7.59375 -4.007812 7.488281 -3.96875 7.34375 -3.96875 L 2.078125 -3.96875 Z M 2.078125 -0.921875 "/></g></g></g><g fill="#ffffff" fill-opacity="1"><g transform="translate(138.620094, 302.236358)"><g><path d="M 5.1875 -9.046875 C 5.8125 -9.046875 6.398438 -8.929688 6.953125 -8.703125 C 7.515625 -8.484375 8.019531 -8.132812 8.46875 -7.65625 C 8.570312 -7.53125 8.613281 -7.410156 8.59375 -7.296875 C 8.570312 -7.179688 8.515625 -7.082031 8.421875 -7 C 8.328125 -6.925781 8.21875 -6.882812 8.09375 -6.875 C 7.96875 -6.875 7.851562 -6.925781 7.75 -7.03125 C 7.382812 -7.425781 6.984375 -7.703125 6.546875 -7.859375 C 6.117188 -8.015625 5.671875 -8.09375 5.203125 -8.09375 C 4.828125 -8.09375 4.429688 -8.035156 4.015625 -7.921875 C 3.597656 -7.804688 3.203125 -7.617188 2.828125 -7.359375 C 2.460938 -7.097656 2.160156 -6.738281 1.921875 -6.28125 C 1.691406 -5.820312 1.578125 -5.25 1.578125 -4.5625 C 1.578125 -3.863281 1.738281 -3.226562 2.0625 -2.65625 C 2.382812 -2.09375 2.816406 -1.644531 3.359375 -1.3125 C 3.898438 -0.988281 4.488281 -0.828125 5.125 -0.828125 C 5.664062 -0.828125 6.175781 -0.941406 6.65625 -1.171875 C 7.132812 -1.410156 7.539062 -1.738281 7.875 -2.15625 C 7.945312 -2.269531 8.046875 -2.332031 8.171875 -2.34375 C 8.296875 -2.351562 8.410156 -2.320312 8.515625 -2.25 C 8.628906 -2.175781 8.707031 -2.082031 8.75 -1.96875 C 8.789062 -1.851562 8.765625 -1.726562 8.671875 -1.59375 C 8.410156 -1.226562 8.082031 -0.914062 7.6875 -0.65625 C 7.300781 -0.394531 6.882812 -0.195312 6.4375 -0.0625 C 5.988281 0.0703125 5.539062 0.140625 5.09375 0.140625 C 4.5 0.140625 3.929688 0.0234375 3.390625 -0.203125 C 2.847656 -0.441406 2.363281 -0.769531 1.9375 -1.1875 C 1.519531 -1.601562 1.191406 -2.101562 0.953125 -2.6875 C 0.710938 -3.269531 0.59375 -3.898438 0.59375 -4.578125 C 0.59375 -5.378906 0.738281 -6.0625 1.03125 -6.625 C 1.320312 -7.1875 1.703125 -7.644531 2.171875 -8 C 2.648438 -8.363281 3.15625 -8.628906 3.6875 -8.796875 C 4.21875 -8.960938 4.71875 -9.046875 5.1875 -9.046875 Z M 5.1875 -9.046875 "/></g></g></g><g fill="#ffffff" fill-opacity="1"><g transform="translate(148.66689, 302.236358)"><g><path d="M 2.046875 -4.890625 L 7.203125 -4.890625 L 7.203125 -8.40625 C 7.203125 -8.570312 7.253906 -8.695312 7.359375 -8.78125 C 7.460938 -8.863281 7.582031 -8.90625 7.71875 -8.90625 C 7.84375 -8.90625 7.957031 -8.863281 8.0625 -8.78125 C 8.164062 -8.695312 8.21875 -8.570312 8.21875 -8.40625 L 8.21875 -0.53125 C 8.21875 -0.351562 8.160156 -0.21875 8.046875 -0.125 C 7.941406 -0.0390625 7.828125 0 7.703125 0 C 7.578125 0 7.460938 -0.0390625 7.359375 -0.125 C 7.253906 -0.21875 7.203125 -0.351562 7.203125 -0.53125 L 7.203125 -4 L 2.046875 -4 L 2.046875 -0.515625 C 2.046875 -0.335938 1.992188 -0.207031 1.890625 -0.125 C 1.796875 -0.0390625 1.6875 0 1.5625 0 C 1.4375 0 1.316406 -0.0390625 1.203125 -0.125 C 1.085938 -0.21875 1.03125 -0.347656 1.03125 -0.515625 L 1.03125 -8.40625 C 1.03125 -8.570312 1.082031 -8.695312 1.1875 -8.78125 C 1.289062 -8.863281 1.40625 -8.90625 1.53125 -8.90625 C 1.65625 -8.90625 1.769531 -8.859375 1.875 -8.765625 C 1.988281 -8.679688 2.046875 -8.5625 2.046875 -8.40625 Z M 2.046875 -4.890625 "/></g></g></g><g fill="#ffffff" fill-opacity="1"><g transform="translate(158.93755, 302.236358)"><g/></g></g><g fill="#ffffff" fill-opacity="1"><g transform="translate(163.471412, 302.236358)"><g><path d="M 1.1875 0 C 1.007812 0 0.859375 -0.0546875 0.734375 -0.171875 C 0.609375 -0.296875 0.546875 -0.441406 0.546875 -0.609375 L 0.546875 -8.3125 C 0.546875 -8.46875 0.609375 -8.601562 0.734375 -8.71875 C 0.859375 -8.84375 1.007812 -8.90625 1.1875 -8.90625 L 4.234375 -8.90625 C 4.941406 -8.90625 5.550781 -8.773438 6.0625 -8.515625 C 6.582031 -8.265625 7.015625 -7.925781 7.359375 -7.5 C 7.710938 -7.082031 7.972656 -6.609375 8.140625 -6.078125 C 8.316406 -5.554688 8.40625 -5.015625 8.40625 -4.453125 C 8.40625 -3.890625 8.316406 -3.34375 8.140625 -2.8125 C 7.972656 -2.289062 7.710938 -1.816406 7.359375 -1.390625 C 7.015625 -0.960938 6.582031 -0.625 6.0625 -0.375 C 5.550781 -0.125 4.941406 0 4.234375 0 Z M 1.546875 -0.90625 L 4.234375 -0.90625 C 4.765625 -0.90625 5.226562 -1.003906 5.625 -1.203125 C 6.019531 -1.410156 6.347656 -1.679688 6.609375 -2.015625 C 6.867188 -2.359375 7.0625 -2.738281 7.1875 -3.15625 C 7.320312 -3.582031 7.390625 -4.015625 7.390625 -4.453125 C 7.390625 -4.890625 7.320312 -5.320312 7.1875 -5.75 C 7.0625 -6.175781 6.867188 -6.554688 6.609375 -6.890625 C 6.347656 -7.234375 6.019531 -7.503906 5.625 -7.703125 C 5.226562 -7.910156 4.765625 -8.015625 4.234375 -8.015625 L 1.546875 -8.015625 Z M 1.546875 -0.90625 "/></g></g></g><g fill="#ffffff" fill-opacity="1"><g transform="translate(173.378276, 302.236358)"><g><path d="M 2.09375 -3.109375 L 2.09375 -0.484375 C 2.09375 -0.328125 2.035156 -0.207031 1.921875 -0.125 C 1.816406 -0.0390625 1.695312 0 1.5625 0 C 1.445312 0 1.332031 -0.0390625 1.21875 -0.125 C 1.113281 -0.207031 1.0625 -0.320312 1.0625 -0.46875 L 1.0625 -8.40625 C 1.0625 -8.5625 1.109375 -8.679688 1.203125 -8.765625 C 1.304688 -8.859375 1.429688 -8.90625 1.578125 -8.90625 L 4.90625 -8.90625 C 5.71875 -8.90625 6.390625 -8.765625 6.921875 -8.484375 C 7.460938 -8.210938 7.867188 -7.847656 8.140625 -7.390625 C 8.410156 -6.941406 8.546875 -6.441406 8.546875 -5.890625 C 8.546875 -5.179688 8.34375 -4.585938 7.9375 -4.109375 C 7.539062 -3.628906 6.914062 -3.3125 6.0625 -3.15625 L 8.203125 -0.859375 C 8.335938 -0.722656 8.394531 -0.585938 8.375 -0.453125 C 8.363281 -0.328125 8.3125 -0.21875 8.21875 -0.125 C 8.125 -0.0390625 8.007812 0 7.875 0 C 7.738281 0 7.613281 -0.0625 7.5 -0.1875 L 4.796875 -3.109375 Z M 2.09375 -3.984375 L 4.90625 -3.984375 C 5.8125 -3.984375 6.472656 -4.160156 6.890625 -4.515625 C 7.304688 -4.878906 7.515625 -5.320312 7.515625 -5.84375 C 7.503906 -6.445312 7.269531 -6.953125 6.8125 -7.359375 C 6.351562 -7.765625 5.71875 -7.96875 4.90625 -7.96875 L 2.09375 -7.96875 Z M 2.09375 -3.984375 "/></g></g></g><g fill="#ffffff" fill-opacity="1"><g transform="translate(183.285139, 302.236358)"><g><path d="M 2.078125 -0.921875 L 7.609375 -0.921875 C 7.753906 -0.921875 7.863281 -0.875 7.9375 -0.78125 C 8.019531 -0.6875 8.0625 -0.578125 8.0625 -0.453125 C 8.070312 -0.335938 8.039062 -0.234375 7.96875 -0.140625 C 7.894531 -0.046875 7.773438 0 7.609375 0 L 1.703125 0 C 1.503906 0 1.347656 -0.0546875 1.234375 -0.171875 C 1.117188 -0.296875 1.0625 -0.441406 1.0625 -0.609375 L 1.0625 -8.296875 C 1.0625 -8.460938 1.117188 -8.601562 1.234375 -8.71875 C 1.347656 -8.84375 1.503906 -8.90625 1.703125 -8.90625 L 7.609375 -8.90625 C 7.765625 -8.90625 7.878906 -8.859375 7.953125 -8.765625 C 8.023438 -8.679688 8.054688 -8.578125 8.046875 -8.453125 C 8.046875 -8.335938 8.007812 -8.234375 7.9375 -8.140625 C 7.863281 -8.054688 7.753906 -8.015625 7.609375 -8.015625 L 2.078125 -8.015625 L 2.078125 -4.859375 L 7.34375 -4.859375 C 7.476562 -4.859375 7.582031 -4.8125 7.65625 -4.71875 C 7.726562 -4.632812 7.765625 -4.53125 7.765625 -4.40625 C 7.765625 -4.289062 7.726562 -4.1875 7.65625 -4.09375 C 7.59375 -4.007812 7.488281 -3.96875 7.34375 -3.96875 L 2.078125 -3.96875 Z M 2.078125 -0.921875 "/></g></g></g><g fill="#ffffff" fill-opacity="1"><g transform="translate(192.940141, 302.236358)"><g><path d="M 4.71875 -9.046875 C 4.925781 -9.046875 5.078125 -8.957031 5.171875 -8.78125 L 9.296875 -0.671875 C 9.398438 -0.472656 9.390625 -0.3125 9.265625 -0.1875 C 9.148438 -0.0625 9 0 8.8125 0 C 8.726562 0 8.640625 -0.0195312 8.546875 -0.0625 C 8.460938 -0.101562 8.398438 -0.171875 8.359375 -0.265625 L 7.34375 -2.25 L 2.09375 -2.25 L 1.046875 -0.25 C 0.953125 -0.0820312 0.8125 0 0.625 0 C 0.46875 0 0.320312 -0.0625 0.1875 -0.1875 C 0.0625 -0.320312 0.0390625 -0.476562 0.125 -0.65625 L 4.25 -8.78125 C 4.300781 -8.875 4.367188 -8.941406 4.453125 -8.984375 C 4.535156 -9.023438 4.625 -9.046875 4.71875 -9.046875 Z M 4.71875 -7.546875 L 2.5 -3.140625 L 6.921875 -3.140625 Z M 4.71875 -7.546875 "/></g></g></g><g fill="#ffffff" fill-opacity="1"><g transform="translate(203.40669, 302.236358)"><g><path d="M 8.84375 -8.609375 C 8.914062 -8.710938 8.992188 -8.785156 9.078125 -8.828125 C 9.160156 -8.878906 9.25 -8.90625 9.34375 -8.90625 C 9.46875 -8.90625 9.578125 -8.859375 9.671875 -8.765625 C 9.765625 -8.671875 9.8125 -8.535156 9.8125 -8.359375 L 9.8125 -0.5 C 9.8125 -0.332031 9.757812 -0.207031 9.65625 -0.125 C 9.550781 -0.0390625 9.4375 0 9.3125 0 C 9.175781 0 9.054688 -0.0390625 8.953125 -0.125 C 8.847656 -0.207031 8.796875 -0.332031 8.796875 -0.5 L 8.796875 -6.65625 L 5.9375 -2.203125 C 5.8125 -2.003906 5.648438 -1.90625 5.453125 -1.90625 C 5.265625 -1.90625 5.101562 -2.003906 4.96875 -2.203125 L 2.109375 -6.640625 L 2.109375 -0.5 C 2.109375 -0.332031 2.054688 -0.207031 1.953125 -0.125 C 1.859375 -0.0390625 1.742188 0 1.609375 0 C 1.472656 0 1.351562 -0.0390625 1.25 -0.125 C 1.144531 -0.207031 1.09375 -0.332031 1.09375 -0.5 L 1.09375 -8.34375 C 1.09375 -8.519531 1.144531 -8.65625 1.25 -8.75 C 1.351562 -8.851562 1.460938 -8.90625 1.578125 -8.90625 C 1.660156 -8.90625 1.742188 -8.878906 1.828125 -8.828125 C 1.910156 -8.773438 1.984375 -8.695312 2.046875 -8.59375 L 5.453125 -3.296875 Z M 8.84375 -8.609375 "/></g></g></g><g fill="#ffffff" fill-opacity="1"><g transform="translate(215.342419, 302.236358)"><g><path d="M 0.3125 -1.953125 C 0.269531 -2.117188 0.289062 -2.25 0.375 -2.34375 C 0.457031 -2.4375 0.570312 -2.5 0.71875 -2.53125 C 0.863281 -2.5625 0.992188 -2.550781 1.109375 -2.5 C 1.234375 -2.445312 1.3125 -2.351562 1.34375 -2.21875 C 1.4375 -1.925781 1.59375 -1.691406 1.8125 -1.515625 C 2.03125 -1.335938 2.285156 -1.203125 2.578125 -1.109375 C 2.878906 -1.015625 3.1875 -0.953125 3.5 -0.921875 C 3.8125 -0.890625 4.101562 -0.875 4.375 -0.875 C 4.675781 -0.875 5 -0.894531 5.34375 -0.9375 C 5.695312 -0.988281 6.03125 -1.070312 6.34375 -1.1875 C 6.65625 -1.3125 6.910156 -1.484375 7.109375 -1.703125 C 7.316406 -1.929688 7.421875 -2.222656 7.421875 -2.578125 C 7.421875 -2.878906 7.335938 -3.117188 7.171875 -3.296875 C 7.003906 -3.472656 6.773438 -3.609375 6.484375 -3.703125 C 6.203125 -3.796875 5.878906 -3.863281 5.515625 -3.90625 C 5.160156 -3.945312 4.789062 -3.984375 4.40625 -4.015625 C 3.925781 -4.054688 3.445312 -4.109375 2.96875 -4.171875 C 2.5 -4.234375 2.070312 -4.34375 1.6875 -4.5 C 1.300781 -4.65625 0.988281 -4.882812 0.75 -5.1875 C 0.519531 -5.5 0.40625 -5.914062 0.40625 -6.4375 C 0.40625 -6.90625 0.519531 -7.300781 0.75 -7.625 C 0.988281 -7.957031 1.296875 -8.226562 1.671875 -8.4375 C 2.054688 -8.644531 2.472656 -8.796875 2.921875 -8.890625 C 3.367188 -8.992188 3.804688 -9.046875 4.234375 -9.046875 C 4.597656 -9.046875 4.976562 -9.019531 5.375 -8.96875 C 5.78125 -8.925781 6.160156 -8.835938 6.515625 -8.703125 C 6.878906 -8.578125 7.203125 -8.390625 7.484375 -8.140625 C 7.765625 -7.890625 7.984375 -7.566406 8.140625 -7.171875 C 8.191406 -7.023438 8.179688 -6.898438 8.109375 -6.796875 C 8.046875 -6.703125 7.945312 -6.632812 7.8125 -6.59375 C 7.6875 -6.5625 7.5625 -6.5625 7.4375 -6.59375 C 7.320312 -6.632812 7.238281 -6.710938 7.1875 -6.828125 C 7.039062 -7.179688 6.800781 -7.441406 6.46875 -7.609375 C 6.132812 -7.785156 5.765625 -7.894531 5.359375 -7.9375 C 4.960938 -7.988281 4.59375 -8.015625 4.25 -8.015625 C 4.019531 -8.015625 3.75 -7.988281 3.4375 -7.9375 C 3.125 -7.894531 2.820312 -7.8125 2.53125 -7.6875 C 2.238281 -7.570312 1.992188 -7.410156 1.796875 -7.203125 C 1.597656 -7.003906 1.5 -6.742188 1.5 -6.421875 C 1.5 -6.023438 1.640625 -5.726562 1.921875 -5.53125 C 2.203125 -5.332031 2.566406 -5.195312 3.015625 -5.125 C 3.472656 -5.0625 3.972656 -5.003906 4.515625 -4.953125 C 4.992188 -4.921875 5.46875 -4.875 5.9375 -4.8125 C 6.414062 -4.75 6.847656 -4.644531 7.234375 -4.5 C 7.617188 -4.351562 7.925781 -4.128906 8.15625 -3.828125 C 8.382812 -3.523438 8.5 -3.113281 8.5 -2.59375 C 8.5 -2.0625 8.367188 -1.617188 8.109375 -1.265625 C 7.847656 -0.910156 7.503906 -0.628906 7.078125 -0.421875 C 6.660156 -0.210938 6.210938 -0.0664062 5.734375 0.015625 C 5.265625 0.0976562 4.8125 0.140625 4.375 0.140625 C 4.019531 0.140625 3.628906 0.109375 3.203125 0.046875 C 2.785156 -0.015625 2.378906 -0.125 1.984375 -0.28125 C 1.585938 -0.4375 1.234375 -0.648438 0.921875 -0.921875 C 0.617188 -1.191406 0.414062 -1.535156 0.3125 -1.953125 Z M 0.3125 -1.953125 "/></g></g></g><g fill="#ffffff" fill-opacity="1"><g transform="translate(225.095371, 302.236358)"><g/></g></g><g fill="#ffffff" fill-opacity="1"><g transform="translate(229.629234, 302.236358)"><g><path d="M 5.1875 -9.046875 C 5.8125 -9.046875 6.398438 -8.929688 6.953125 -8.703125 C 7.515625 -8.484375 8.019531 -8.132812 8.46875 -7.65625 C 8.570312 -7.53125 8.613281 -7.410156 8.59375 -7.296875 C 8.570312 -7.179688 8.515625 -7.082031 8.421875 -7 C 8.328125 -6.925781 8.21875 -6.882812 8.09375 -6.875 C 7.96875 -6.875 7.851562 -6.925781 7.75 -7.03125 C 7.382812 -7.425781 6.984375 -7.703125 6.546875 -7.859375 C 6.117188 -8.015625 5.671875 -8.09375 5.203125 -8.09375 C 4.828125 -8.09375 4.429688 -8.035156 4.015625 -7.921875 C 3.597656 -7.804688 3.203125 -7.617188 2.828125 -7.359375 C 2.460938 -7.097656 2.160156 -6.738281 1.921875 -6.28125 C 1.691406 -5.820312 1.578125 -5.25 1.578125 -4.5625 C 1.578125 -3.863281 1.738281 -3.226562 2.0625 -2.65625 C 2.382812 -2.09375 2.816406 -1.644531 3.359375 -1.3125 C 3.898438 -0.988281 4.488281 -0.828125 5.125 -0.828125 C 5.664062 -0.828125 6.175781 -0.941406 6.65625 -1.171875 C 7.132812 -1.410156 7.539062 -1.738281 7.875 -2.15625 C 7.945312 -2.269531 8.046875 -2.332031 8.171875 -2.34375 C 8.296875 -2.351562 8.410156 -2.320312 8.515625 -2.25 C 8.628906 -2.175781 8.707031 -2.082031 8.75 -1.96875 C 8.789062 -1.851562 8.765625 -1.726562 8.671875 -1.59375 C 8.410156 -1.226562 8.082031 -0.914062 7.6875 -0.65625 C 7.300781 -0.394531 6.882812 -0.195312 6.4375 -0.0625 C 5.988281 0.0703125 5.539062 0.140625 5.09375 0.140625 C 4.5 0.140625 3.929688 0.0234375 3.390625 -0.203125 C 2.847656 -0.441406 2.363281 -0.769531 1.9375 -1.1875 C 1.519531 -1.601562 1.191406 -2.101562 0.953125 -2.6875 C 0.710938 -3.269531 0.59375 -3.898438 0.59375 -4.578125 C 0.59375 -5.378906 0.738281 -6.0625 1.03125 -6.625 C 1.320312 -7.1875 1.703125 -7.644531 2.171875 -8 C 2.648438 -8.363281 3.15625 -8.628906 3.6875 -8.796875 C 4.21875 -8.960938 4.71875 -9.046875 5.1875 -9.046875 Z M 5.1875 -9.046875 "/></g></g></g><g fill="#ffffff" fill-opacity="1"><g transform="translate(239.676024, 302.236358)"><g><path d="M 5.046875 0.140625 C 4.210938 0.140625 3.453125 -0.046875 2.765625 -0.421875 C 2.078125 -0.804688 1.53125 -1.351562 1.125 -2.0625 C 0.71875 -2.769531 0.515625 -3.617188 0.515625 -4.609375 C 0.515625 -5.390625 0.65625 -6.0625 0.9375 -6.625 C 1.21875 -7.1875 1.582031 -7.644531 2.03125 -8 C 2.488281 -8.363281 2.972656 -8.628906 3.484375 -8.796875 C 3.992188 -8.960938 4.476562 -9.046875 4.9375 -9.046875 C 5.40625 -9.046875 5.90625 -8.960938 6.4375 -8.796875 C 6.96875 -8.628906 7.46875 -8.363281 7.9375 -8 C 8.414062 -7.644531 8.800781 -7.1875 9.09375 -6.625 C 9.382812 -6.0625 9.53125 -5.390625 9.53125 -4.609375 C 9.53125 -3.878906 9.410156 -3.222656 9.171875 -2.640625 C 8.929688 -2.054688 8.601562 -1.554688 8.1875 -1.140625 C 7.769531 -0.722656 7.289062 -0.40625 6.75 -0.1875 C 6.21875 0.03125 5.648438 0.140625 5.046875 0.140625 Z M 1.5625 -4.5625 C 1.5625 -3.800781 1.710938 -3.140625 2.015625 -2.578125 C 2.328125 -2.015625 2.75 -1.578125 3.28125 -1.265625 C 3.8125 -0.960938 4.398438 -0.8125 5.046875 -0.8125 C 5.679688 -0.8125 6.257812 -0.957031 6.78125 -1.25 C 7.300781 -1.550781 7.71875 -1.984375 8.03125 -2.546875 C 8.34375 -3.109375 8.5 -3.78125 8.5 -4.5625 C 8.5 -5.207031 8.382812 -5.753906 8.15625 -6.203125 C 7.925781 -6.648438 7.628906 -7.015625 7.265625 -7.296875 C 6.910156 -7.578125 6.53125 -7.78125 6.125 -7.90625 C 5.71875 -8.039062 5.332031 -8.109375 4.96875 -8.109375 C 4.613281 -8.109375 4.238281 -8.046875 3.84375 -7.921875 C 3.445312 -7.796875 3.078125 -7.59375 2.734375 -7.3125 C 2.390625 -7.039062 2.109375 -6.679688 1.890625 -6.234375 C 1.671875 -5.785156 1.5625 -5.226562 1.5625 -4.5625 Z M 1.5625 -4.5625 "/></g></g></g><g fill="#ffffff" fill-opacity="1"><g transform="translate(250.814203, 302.236358)"><g><path d="M 8.84375 -8.609375 C 8.914062 -8.710938 8.992188 -8.785156 9.078125 -8.828125 C 9.160156 -8.878906 9.25 -8.90625 9.34375 -8.90625 C 9.46875 -8.90625 9.578125 -8.859375 9.671875 -8.765625 C 9.765625 -8.671875 9.8125 -8.535156 9.8125 -8.359375 L 9.8125 -0.5 C 9.8125 -0.332031 9.757812 -0.207031 9.65625 -0.125 C 9.550781 -0.0390625 9.4375 0 9.3125 0 C 9.175781 0 9.054688 -0.0390625 8.953125 -0.125 C 8.847656 -0.207031 8.796875 -0.332031 8.796875 -0.5 L 8.796875 -6.65625 L 5.9375 -2.203125 C 5.8125 -2.003906 5.648438 -1.90625 5.453125 -1.90625 C 5.265625 -1.90625 5.101562 -2.003906 4.96875 -2.203125 L 2.109375 -6.640625 L 2.109375 -0.5 C 2.109375 -0.332031 2.054688 -0.207031 1.953125 -0.125 C 1.859375 -0.0390625 1.742188 0 1.609375 0 C 1.472656 0 1.351562 -0.0390625 1.25 -0.125 C 1.144531 -0.207031 1.09375 -0.332031 1.09375 -0.5 L 1.09375 -8.34375 C 1.09375 -8.519531 1.144531 -8.65625 1.25 -8.75 C 1.351562 -8.851562 1.460938 -8.90625 1.578125 -8.90625 C 1.660156 -8.90625 1.742188 -8.878906 1.828125 -8.828125 C 1.910156 -8.773438 1.984375 -8.695312 2.046875 -8.59375 L 5.453125 -3.296875 Z M 8.84375 -8.609375 "/></g></g></g><g fill="#ffffff" fill-opacity="1"><g transform="translate(262.749944, 302.236358)"><g><path d="M 2.078125 -0.921875 L 7.609375 -0.921875 C 7.753906 -0.921875 7.863281 -0.875 7.9375 -0.78125 C 8.019531 -0.6875 8.0625 -0.578125 8.0625 -0.453125 C 8.070312 -0.335938 8.039062 -0.234375 7.96875 -0.140625 C 7.894531 -0.046875 7.773438 0 7.609375 0 L 1.703125 0 C 1.503906 0 1.347656 -0.0546875 1.234375 -0.171875 C 1.117188 -0.296875 1.0625 -0.441406 1.0625 -0.609375 L 1.0625 -8.296875 C 1.0625 -8.460938 1.117188 -8.601562 1.234375 -8.71875 C 1.347656 -8.84375 1.503906 -8.90625 1.703125 -8.90625 L 7.609375 -8.90625 C 7.765625 -8.90625 7.878906 -8.859375 7.953125 -8.765625 C 8.023438 -8.679688 8.054688 -8.578125 8.046875 -8.453125 C 8.046875 -8.335938 8.007812 -8.234375 7.9375 -8.140625 C 7.863281 -8.054688 7.753906 -8.015625 7.609375 -8.015625 L 2.078125 -8.015625 L 2.078125 -4.859375 L 7.34375 -4.859375 C 7.476562 -4.859375 7.582031 -4.8125 7.65625 -4.71875 C 7.726562 -4.632812 7.765625 -4.53125 7.765625 -4.40625 C 7.765625 -4.289062 7.726562 -4.1875 7.65625 -4.09375 C 7.59375 -4.007812 7.488281 -3.96875 7.34375 -3.96875 L 2.078125 -3.96875 Z M 2.078125 -0.921875 "/></g></g></g><g fill="#ffffff" fill-opacity="1"><g transform="translate(272.404957, 302.236358)"><g/></g></g><g fill="#ffffff" fill-opacity="1"><g transform="translate(276.938831, 302.236358)"><g><path d="M 7.59375 -8.90625 C 7.757812 -8.90625 7.882812 -8.851562 7.96875 -8.75 C 8.0625 -8.65625 8.109375 -8.546875 8.109375 -8.421875 C 8.109375 -8.296875 8.0625 -8.179688 7.96875 -8.078125 C 7.882812 -7.984375 7.757812 -7.9375 7.59375 -7.9375 L 4.46875 -7.9375 L 4.484375 -0.515625 C 4.484375 -0.335938 4.421875 -0.207031 4.296875 -0.125 C 4.179688 -0.0390625 4.066406 0 3.953125 0 C 3.828125 0 3.707031 -0.0390625 3.59375 -0.125 C 3.488281 -0.207031 3.4375 -0.335938 3.4375 -0.515625 L 3.4375 -7.9375 L 0.34375 -7.9375 C 0.164062 -7.9375 0.0390625 -7.984375 -0.03125 -8.078125 C -0.113281 -8.179688 -0.15625 -8.296875 -0.15625 -8.421875 C -0.15625 -8.546875 -0.113281 -8.65625 -0.03125 -8.75 C 0.0390625 -8.851562 0.164062 -8.90625 0.34375 -8.90625 Z M 7.59375 -8.90625 "/></g></g></g><g fill="#ffffff" fill-opacity="1"><g transform="translate(285.894245, 302.236358)"><g><path d="M 2.09375 -3.109375 L 2.09375 -0.484375 C 2.09375 -0.328125 2.035156 -0.207031 1.921875 -0.125 C 1.816406 -0.0390625 1.695312 0 1.5625 0 C 1.445312 0 1.332031 -0.0390625 1.21875 -0.125 C 1.113281 -0.207031 1.0625 -0.320312 1.0625 -0.46875 L 1.0625 -8.40625 C 1.0625 -8.5625 1.109375 -8.679688 1.203125 -8.765625 C 1.304688 -8.859375 1.429688 -8.90625 1.578125 -8.90625 L 4.90625 -8.90625 C 5.71875 -8.90625 6.390625 -8.765625 6.921875 -8.484375 C 7.460938 -8.210938 7.867188 -7.847656 8.140625 -7.390625 C 8.410156 -6.941406 8.546875 -6.441406 8.546875 -5.890625 C 8.546875 -5.179688 8.34375 -4.585938 7.9375 -4.109375 C 7.539062 -3.628906 6.914062 -3.3125 6.0625 -3.15625 L 8.203125 -0.859375 C 8.335938 -0.722656 8.394531 -0.585938 8.375 -0.453125 C 8.363281 -0.328125 8.3125 -0.21875 8.21875 -0.125 C 8.125 -0.0390625 8.007812 0 7.875 0 C 7.738281 0 7.613281 -0.0625 7.5 -0.1875 L 4.796875 -3.109375 Z M 2.09375 -3.984375 L 4.90625 -3.984375 C 5.8125 -3.984375 6.472656 -4.160156 6.890625 -4.515625 C 7.304688 -4.878906 7.515625 -5.320312 7.515625 -5.84375 C 7.503906 -6.445312 7.269531 -6.953125 6.8125 -7.359375 C 6.351562 -7.765625 5.71875 -7.96875 4.90625 -7.96875 L 2.09375 -7.96875 Z M 2.09375 -3.984375 "/></g></g></g><g fill="#ffffff" fill-opacity="1"><g transform="translate(295.80112, 302.236358)"><g><path d="M 8.25 -8.53125 C 8.25 -8.707031 8.300781 -8.835938 8.40625 -8.921875 C 8.519531 -9.003906 8.644531 -9.046875 8.78125 -9.046875 C 8.90625 -9.046875 9.019531 -9.003906 9.125 -8.921875 C 9.238281 -8.835938 9.296875 -8.710938 9.296875 -8.546875 L 9.296875 -3.90625 C 9.296875 -3.226562 9.175781 -2.640625 8.9375 -2.140625 C 8.707031 -1.640625 8.394531 -1.21875 8 -0.875 C 7.601562 -0.53125 7.160156 -0.273438 6.671875 -0.109375 C 6.179688 0.0546875 5.679688 0.140625 5.171875 0.140625 C 4.648438 0.140625 4.144531 0.0546875 3.65625 -0.109375 C 3.164062 -0.273438 2.722656 -0.53125 2.328125 -0.875 C 1.929688 -1.21875 1.613281 -1.640625 1.375 -2.140625 C 1.144531 -2.640625 1.03125 -3.226562 1.03125 -3.90625 L 1.03125 -8.578125 C 1.03125 -8.734375 1.085938 -8.847656 1.203125 -8.921875 C 1.316406 -9.003906 1.429688 -9.046875 1.546875 -9.046875 C 1.679688 -9.046875 1.804688 -9.003906 1.921875 -8.921875 C 2.035156 -8.847656 2.09375 -8.726562 2.09375 -8.5625 L 2.09375 -3.90625 C 2.09375 -3.226562 2.238281 -2.664062 2.53125 -2.21875 C 2.832031 -1.769531 3.21875 -1.429688 3.6875 -1.203125 C 4.15625 -0.984375 4.648438 -0.875 5.171875 -0.875 C 5.679688 -0.875 6.171875 -0.984375 6.640625 -1.203125 C 7.109375 -1.429688 7.492188 -1.769531 7.796875 -2.21875 C 8.097656 -2.664062 8.25 -3.226562 8.25 -3.90625 Z M 8.25 -8.53125 "/></g></g></g><g fill="#ffffff" fill-opacity="1"><g transform="translate(307.135187, 302.236358)"><g><path d="M 2.078125 -0.921875 L 7.609375 -0.921875 C 7.753906 -0.921875 7.863281 -0.875 7.9375 -0.78125 C 8.019531 -0.6875 8.0625 -0.578125 8.0625 -0.453125 C 8.070312 -0.335938 8.039062 -0.234375 7.96875 -0.140625 C 7.894531 -0.046875 7.773438 0 7.609375 0 L 1.703125 0 C 1.503906 0 1.347656 -0.0546875 1.234375 -0.171875 C 1.117188 -0.296875 1.0625 -0.441406 1.0625 -0.609375 L 1.0625 -8.296875 C 1.0625 -8.460938 1.117188 -8.601562 1.234375 -8.71875 C 1.347656 -8.84375 1.503906 -8.90625 1.703125 -8.90625 L 7.609375 -8.90625 C 7.765625 -8.90625 7.878906 -8.859375 7.953125 -8.765625 C 8.023438 -8.679688 8.054688 -8.578125 8.046875 -8.453125 C 8.046875 -8.335938 8.007812 -8.234375 7.9375 -8.140625 C 7.863281 -8.054688 7.753906 -8.015625 7.609375 -8.015625 L 2.078125 -8.015625 L 2.078125 -4.859375 L 7.34375 -4.859375 C 7.476562 -4.859375 7.582031 -4.8125 7.65625 -4.71875 C 7.726562 -4.632812 7.765625 -4.53125 7.765625 -4.40625 C 7.765625 -4.289062 7.726562 -4.1875 7.65625 -4.09375 C 7.59375 -4.007812 7.488281 -3.96875 7.34375 -3.96875 L 2.078125 -3.96875 Z M 2.078125 -0.921875 "/></g></g></g></svg>